<svg xmlns="http://www.w3.org/2000/svg" width="300px" height="300px" viewBox="0 0 512 512">
  <defs>
    <linearGradient id="cloudGradient" x1="99.5" x2="232.6" y1="30.7" y2="261.4" gradientUnits="userSpaceOnUse">
      <stop offset="0" stop-color="#6b7280"/>
      <stop offset=".5" stop-color="#6b7280"/>
      <stop offset="1" stop-color="#4b5563"/>
    </linearGradient>
    
    <linearGradient id="rainGradient" x1="1381.3" x2="1399.5" y1="-1144.7" y2="-1097.4" gradientTransform="rotate(-9 8002.567 8233.063)" gradientUnits="userSpaceOnUse">
      <stop offset="0" stop-color="#0b65ed"/>
      <stop offset=".5" stop-color="#0a5ad4"/>
      <stop offset="1" stop-color="#0950bc"/>
    </linearGradient>
    
    <symbol id="cloud" viewBox="0 0 350 222">
      <path fill="url(#cloudGradient)" stroke="#5b6472" stroke-miterlimit="10" stroke-width="6" 
        d="m291 107l-2.5.1A83.9 83.9 0 0 0 135.6 43A56 56 0 0 0 51 91a56.6 56.6 0 0 0 .8 9A60 60 0 0 0 63 219l4-.2v.2h224a56 56 0 0 0 0-112Z"/>
      <animateTransform attributeName="transform" type="translate" values="-9 0; 9 0; -9 0" dur="6s" repeatCount="indefinite"/>
    </symbol>
    
    <symbol id="rain" viewBox="0 0 129 57">
      <path fill="url(#rainGradient)" stroke="#0a5ad4" stroke-miterlimit="10" d="M8.5 56.5a8 8 0 0 1-8-8v-40a8 8 0 0 1 16 0v40a8 8 0 0 1-8 8Z" opacity="0" stroke-width="1">
        <animateTransform attributeName="transform" type="translate" values="0 -60; 0 60" dur=".67s" repeatCount="indefinite"/>
        <animate attributeName="opacity" dur=".67s" keyTimes="0; .25; 1" values="1; 1; 0" repeatCount="indefinite"/>
      </path>
      
      <path fill="url(#rainGradient)" stroke="#0a5ad4" stroke-miterlimit="10" d="M64.5 56.5a8 8 0 0 1-8-8v-40a8 8 0 0 1 16 0v40a8 8 0 0 1-8 8Z" opacity="0" stroke-width="1">
        <animateTransform attributeName="transform" type="translate" values="0 -60; 0 60" dur=".67s" begin=".33s" repeatCount="indefinite"/>
        <animate attributeName="opacity" dur=".67s" keyTimes="0; .25; 1" values="1; 1; 0" begin=".33s" repeatCount="indefinite"/>
      </path>
      
      <path fill="url(#rainGradient)" stroke="#0a5ad4" stroke-miterlimit="10" d="M120.5 56.5a8 8 0 0 1-8-8v-40a8 8 0 0 1 16 0v40a8 8 0 0 1-8 8Z" opacity="0" stroke-width="1">
        <animateTransform attributeName="transform" type="translate" values="0 -60; 0 60" dur=".67s" begin=".16s" repeatCount="indefinite"/>
        <animate attributeName="opacity" dur=".67s" keyTimes="0; .25; 1" values="1; 1; 0" begin=".16s" repeatCount="indefinite"/>
      </path>
    </symbol>
  </defs>
  
  <!-- Cloud -->
  <use width="350" height="222" href="#cloud" transform="translate(80 100)"/>
  
  <!-- Rain -->
  <use width="129" height="190" href="#rain" transform="translate(191.5 260)"/>
</svg>
