<svg width="40" height="40" viewBox="0 0 40 40" fill="none" xmlns="http://www.w3.org/2000/svg">
<g clip-path="url(#clip0_9_16)">
<path d="M25.0998 8.80476L34.5281 18.2331C34.9963 18.7018 35.2593 19.3373 35.2593 19.9998C35.2593 20.6623 34.9963 21.2977 34.5281 21.7664L25.1015 31.1964C24.6325 31.6654 23.9964 31.9289 23.3331 31.9289C22.6699 31.9289 22.0338 31.6654 21.5648 31.1964C21.0958 30.7274 20.8323 30.0914 20.8323 29.4281C20.8323 28.7648 21.0958 28.1288 21.5648 27.6598L26.7248 22.4998H7.49982C6.83678 22.4998 6.20089 22.2364 5.73205 21.7675C5.26321 21.2987 4.99982 20.6628 4.99982 19.9998C4.99982 19.3367 5.26321 18.7008 5.73205 18.232C6.20089 17.7632 6.83678 17.4998 7.49982 17.4998H26.7248L21.5665 12.3398C21.0977 11.8708 20.8344 11.2348 20.8346 10.5717C20.8348 9.90858 21.0983 9.2727 21.5673 8.80393C22.0363 8.33516 22.6723 8.0719 23.3354 8.07205C23.9985 8.07221 24.6344 8.33577 25.1031 8.80476H25.0998Z" fill="white"/>
</g>
<defs>
<clipPath id="clip0_9_16">
<rect width="40" height="40" fill="white" transform="translate(-0.000183105 -0.000244141)"/>
</clipPath>
</defs>
</svg>
